# xmcd CD database file
#
# Track frame offsets:
#	150
#	17201
#	32248
#	52995
#	65136
#	81303
#	99905
#	104692
#	123376
#	140084
#	162743
#	184458
#	206777
#	228007
#	242846
#	273875
#	290427
#
# Disc length: 4078 seconds
#
# Revision: 0
# Processed by: cddbd v1.5.1PL0 Copyright (c) Steve Scherf et al.
# Submitted via: CDex 1.51
#
DISCID=040fec11
DTITLE=Nina Simone - The late, great Nina Simone
DYEAR=2004
DGENRE=Jazz
TTITLE0=Don't let me be misunderstood
TTITLE1=I want a little sugar in my bowl
TTITLE2=Missisippi Gooddam
TTITLE3=Backlash Blues
TTITLE4=Do what you gotta do
TTITLE5=The Other Woman
TTITLE6=You took my teeth
TTITLE7=To be young, gifted, and black
TTITLE8=Ain't got no/I got life
TTITLE9=For a while
TTITLE10=Four women
TTITLE11=I loves you Porgy
TTITLE12=Pirate Jenny
TTITLE13=See-line woman
TTITLE14=The House of the Rising Sun
TTITLE15=I sing just to know that I am alive
TTITLE16=My baby just cares for me
EXTD=YEAR: 2004
EXTT0=
EXTT1=
EXTT2=
EXTT3=
EXTT4=
EXTT5=
EXTT6=
EXTT7=
EXTT8=
EXTT9=
EXTT10=
EXTT11=
EXTT12=
EXTT13=
EXTT14=
EXTT15=
EXTT16=
PLAYORDER=
